<svg width="92" height="92" viewBox="0 0 92 92" fill="none" xmlns="http://www.w3.org/2000/svg">
<path d="M45.9936 88.7571C69.6079 88.7571 88.751 69.614 88.751 45.9998C88.751 22.3855 69.6079 3.24243 45.9936 3.24243C22.3794 3.24243 3.23633 22.3855 3.23633 45.9998C3.23633 69.614 22.3794 88.7571 45.9936 88.7571Z" fill="#F5D483"/>
<path d="M88.7509 45.9998C88.7509 43.6346 88.5507 41.3179 88.1812 39.0574L41.4185 88.5112C42.9224 88.6714 44.4475 88.7578 45.9936 88.7578C47.9843 88.7578 49.94 88.6103 51.8584 88.3476L88.4734 50.8201C88.6511 49.2367 88.7509 47.6302 88.7509 45.9998Z" fill="#FFE7B3"/>
<path d="M45.9936 3.24176C43.0082 3.24176 40.0958 3.55014 37.2831 4.13178L3.6353 40.2192C3.3796 42.111 3.2356 44.0378 3.2356 45.9991C3.2356 50.7793 4.03219 55.3713 5.47925 59.664L51.0022 3.54312C49.3584 3.35134 47.6894 3.24176 45.9936 3.24176Z" fill="#FFE7B3"/>
<path d="M80.0397 20.1409C78.7324 18.422 77.2952 16.8084 75.747 15.3073L18.5977 78.8223C20.155 80.1232 21.8065 81.3146 23.5402 82.3865L80.0397 20.1409Z" fill="#FFE7B3"/>
<path d="M46.824 82.8662C66.7263 82.8662 82.8602 66.7323 82.8602 46.8301C82.8602 26.9278 66.7263 10.7939 46.824 10.7939C26.9218 10.7939 10.7878 26.9278 10.7878 46.8301C10.7878 66.7323 26.9218 82.8662 46.824 82.8662Z" fill="#FFE7B3"/>
<path d="M59.4733 78.5267C77.4373 71.0856 85.9678 50.4907 78.5267 32.5267C71.0856 14.5627 50.4907 6.03221 32.5267 13.4733C14.5627 20.9144 6.0322 41.5093 13.4733 59.4733C20.9144 77.4373 41.5093 85.9678 59.4733 78.5267Z" fill="#DEA82A"/>
<path d="M67.8152 67.8238C79.4096 56.2295 79.4095 37.4313 67.8152 25.837C56.2209 14.2426 37.4227 14.2426 25.8284 25.837C14.234 37.4313 14.234 56.2295 25.8284 67.8238C37.4227 79.4181 56.2209 79.4182 67.8152 67.8238Z" fill="#CE9729"/>
<path d="M75.2787 50.877C77.9744 34.7029 67.048 19.406 50.874 16.7103C34.7 14.0147 19.403 24.941 16.7074 41.1151C14.0117 57.2891 24.9381 72.586 41.1121 75.2817C57.2861 77.9774 72.5831 67.051 75.2787 50.877Z" fill="#F5D483"/>
<path d="M75.2787 50.877C77.9744 34.7029 67.048 19.406 50.874 16.7103C34.7 14.0147 19.403 24.941 16.7074 41.1151C14.0117 57.2891 24.9381 72.586 41.1121 75.2817C57.2861 77.9774 72.5831 67.051 75.2787 50.877Z" fill="#F5D483"/>
<path d="M18.0948 47.4313C18.0948 31.0345 31.3874 17.7419 47.7842 17.7419C54.3649 17.7419 60.4425 19.8865 65.3647 23.5098C60.1644 19.0267 53.399 16.3096 45.9937 16.3096C29.5968 16.3096 16.3042 29.6022 16.3042 45.999C16.3042 55.8152 21.0711 64.5152 28.4132 69.9206C22.0981 64.4758 18.0948 56.4242 18.0948 47.4313Z" fill="#FFE7B3"/>
<path d="M29.3502 70.5872L70.7854 29.6711C69.4009 27.5735 67.7614 25.6593 65.9048 23.9797L22.8264 64.5587C24.6879 66.8775 26.8845 68.9147 29.3502 70.5872Z" fill="#FFE7B3"/>
<path d="M51.8811 42.2985L52.7114 42.8359L51.8811 45.4758L49.7856 44.9384L51.8811 42.2985Z" fill="#FFE7B3"/>
<path d="M32.3513 62.6446L33.1823 63.1819L35.7259 61.1399L34.6589 60.3342L32.3513 62.6446Z" fill="#FFE7B3"/>
<g filter="url(#filter0_i_2025_168)">
<path d="M34.5199 61L57.4814 61C61.7033 61 64.3791 56.446 62.2552 52.7646L48.0841 28.2028C47.1594 26.5991 44.8419 26.5991 43.9172 28.2028L29.7432 52.7646C27.6222 56.4402 30.298 61 34.517 61L34.5199 61ZM46 31.3871L51.1819 41.5413L58.6286 54.8596C59.1199 55.712 58.513 56.8043 57.4843 56.8043L48.0986 56.8043L46 31.3871ZM33.3785 54.8624L40.8223 41.5384L46 31.3871L48.0986 56.8043L34.5228 56.8072C33.494 56.8072 32.8872 55.7149 33.3785 54.8624Z" fill="#DAA428"/>
</g>
<defs>
<filter id="filter0_i_2025_168" x="29" y="27" width="34" height="35" filterUnits="userSpaceOnUse" color-interpolation-filters="sRGB">
<feFlood flood-opacity="0" result="BackgroundImageFix"/>
<feBlend mode="normal" in="SourceGraphic" in2="BackgroundImageFix" result="shape"/>
<feColorMatrix in="SourceAlpha" type="matrix" values="0 0 0 0 0 0 0 0 0 0 0 0 0 0 0 0 0 0 127 0" result="hardAlpha"/>
<feOffset dy="1"/>
<feGaussianBlur stdDeviation="0.5"/>
<feComposite in2="hardAlpha" operator="arithmetic" k2="-1" k3="1"/>
<feColorMatrix type="matrix" values="0 0 0 0 0 0 0 0 0 0 0 0 0 0 0 0 0 0 0.1 0"/>
<feBlend mode="normal" in2="shape" result="effect1_innerShadow_2025_168"/>
</filter>
</defs>
</svg>
